<svg t="1712584281638" class="icon" viewBox="0 0 1024 1024" version="1.1" xmlns="http://www.w3.org/2000/svg" p-id="36235" width="128" height="128"><path d="M737.82784 102.4c-128.54784 0-194.56 39.43936-225.82784 67.05152C478.99648 139.86816 414.72 102.4 282.69568 102.4 49.92 102.4 25.6 228.608 25.6 197.05856v682.33216C25.6 905.02656 44.70784 926.72 67.29216 926.72c0 0 99.0208-23.66464 206.72-23.66464 109.44 0 227.56352 23.66464 227.56352 23.66464 3.47648 0 6.94784 0 10.42432-1.9712 3.47648 0 6.94784 1.9712 10.42432 1.9712 0 0 99.01568-23.66464 206.72-23.66464 109.44 0 227.56352 23.66464 227.56352 23.66464 22.5792 0 41.69216-21.69344 41.69216-47.32928V197.05856C998.4 228.61312 974.08 102.4 737.82784 102.4zM451.2 688.1024c0 13.80352-13.89568 23.66464-31.26784 23.66464H145.4592c-17.37216 0-31.26784-9.86112-31.26784-23.66464v-23.66464c0-13.80352 13.89568-23.66464 31.26784-23.66464h274.46784c17.37216 0 31.26784 9.86112 31.26784 23.66464v23.66464z m0-169.6c0 13.80864-13.89568 23.66464-31.26784 23.66464H145.4592c-17.37216 0-31.26784-9.856-31.26784-23.66464v-23.66464c0-13.80352 13.89568-23.66464 31.26784-23.66464h274.46784c17.37216 0 31.26784 9.86112 31.26784 23.66464v23.66464z m0-173.53728c0 13.80352-13.89568 23.66464-31.26784 23.66464H145.4592c-17.37216 0-31.26784-9.86112-31.26784-23.66464v-23.66464c0-13.80864 13.89568-23.66464 31.26784-23.66464h274.46784c17.37216 0 31.26784 9.856 31.26784 23.66464v23.66464z m491.61216 487.09632c0 25.63584-19.10784 23.66464-41.69216 23.66464 0 0-85.12-23.66464-165.02784-23.66464-74.7008 0-144.1792 23.66464-144.1792 23.66464-22.58944 0-41.69728 1.9712-41.69728-23.66464V244.38784s33.00864-49.3056 123.3408-65.0752v209.03424l83.3792-70.99392 83.38432 70.99392V185.22624c79.90784 19.72224 104.22784 59.1616 104.22784 59.1616v587.6736h-1.7408z" fill="#409eff" p-id="36236"></path></svg>